<?xml version='1.0' encoding='utf-8'?>
<svg xmlns="http://www.w3.org/2000/svg" width="91.44mm" height="91.44mm" version="1.1" style="shape-rendering:geometricPrecision; text-rendering:geometricPrecision; image-rendering:optimizeQuality; fill-rule:evenodd; clip-rule:evenodd" viewBox="0 0 24 24"> <defs> <style type="text/css">  .fil0 {fill:#FFFFFF} .fil1 {fill:#011627;fill-rule:nonzero}  </style> </defs> <g id="Camada_x0020_1"> <metadata id="CorelCorpID_0Corel-Layer"/> <polygon class="fil0 post-icon" points="177.1,0 -0,0 -0,177.1 177.1,177.1 "/> <path class="post-icon" fill="#E4E4E4" d="M 16.792 3.904 A 4.989 4.989 0 0 1 21.5 9.122 c 0 3.072 -2.652 4.959 -5.197 7.222 c -2.512 2.243 -3.865 3.469 -4.303 3.752 c -0.477 -0.309 -2.143 -1.823 -4.303 -3.752 C 5.141 14.072 2.5 12.167 2.5 9.122 a 4.989 4.989 0 0 1 4.708 -5.218 a 4.21 4.21 0 0 1 3.675 1.941 c 0.84 1.175 0.98 1.763 1.12 1.763 s 0.278 -0.588 1.11 -1.766 a 4.17 4.17 0 0 1 3.679 -1.938 m 0 -2 a 6.04 6.04 0 0 0 -4.797 2.127 a 6.052 6.052 0 0 0 -4.787 -2.127 A 6.985 6.985 0 0 0 0.5 9.122 c 0 3.61 2.55 5.827 5.015 7.97 c 0.283 0.246 0.569 0.494 0.853 0.747 l 1.027 0.918 a 44.998 44.998 0 0 0 3.518 3.018 a 2 2 0 0 0 2.174 0 a 45.263 45.263 0 0 0 3.626 -3.115 l 0.922 -0.824 c 0.293 -0.26 0.59 -0.519 0.885 -0.774 c 2.334 -2.025 4.98 -4.32 4.98 -7.94 a 6.985 6.985 0 0 0 -6.708 -7.218 Z"/> </g> </svg>